<mxfile host="app.diagrams.net" agent="Mozilla/5.0 (Windows NT 10.0; Win64; x64) AppleWebKit/537.36 (KHTML, like Gecko) Chrome/131.0.0.0 Safari/537.36" version="26.0.9">
  <diagram name="Page-1" id="BH8oJfU3Qe42gP4KND6z">
    <mxGraphModel dx="1434" dy="738" grid="1" gridSize="10" guides="1" tooltips="1" connect="1" arrows="1" fold="1" page="1" pageScale="1" pageWidth="827" pageHeight="1169" math="0" shadow="0">
      <root>
        <mxCell id="0" />
        <mxCell id="1" parent="0" />
        <mxCell id="J5aSQKZKrRfzM4MedEiM-1" value="Fetch Server List" style="rounded=0;whiteSpace=wrap;html=1;" vertex="1" parent="1">
          <mxGeometry x="70" y="170" width="120" height="60" as="geometry" />
        </mxCell>
        <mxCell id="J5aSQKZKrRfzM4MedEiM-3" style="edgeStyle=orthogonalEdgeStyle;rounded=0;orthogonalLoop=1;jettySize=auto;html=1;entryX=0.5;entryY=0;entryDx=0;entryDy=0;" edge="1" parent="1" target="J5aSQKZKrRfzM4MedEiM-1">
          <mxGeometry relative="1" as="geometry">
            <mxPoint x="130" y="140" as="sourcePoint" />
          </mxGeometry>
        </mxCell>
        <mxCell id="J5aSQKZKrRfzM4MedEiM-4" value="Fetch Trains" style="rounded=0;whiteSpace=wrap;html=1;" vertex="1" parent="1">
          <mxGeometry x="240" y="170" width="120" height="60" as="geometry" />
        </mxCell>
        <mxCell id="J5aSQKZKrRfzM4MedEiM-47" style="edgeStyle=orthogonalEdgeStyle;rounded=0;orthogonalLoop=1;jettySize=auto;html=1;entryX=0;entryY=0.5;entryDx=0;entryDy=0;flowAnimation=0;" edge="1" parent="1" source="J5aSQKZKrRfzM4MedEiM-5" target="J5aSQKZKrRfzM4MedEiM-4">
          <mxGeometry relative="1" as="geometry" />
        </mxCell>
        <mxCell id="J5aSQKZKrRfzM4MedEiM-5" value="Choose Server" style="shape=parallelogram;perimeter=parallelogramPerimeter;whiteSpace=wrap;html=1;fixedSize=1;" vertex="1" parent="1">
          <mxGeometry x="70" y="350" width="120" height="60" as="geometry" />
        </mxCell>
        <mxCell id="J5aSQKZKrRfzM4MedEiM-14" style="edgeStyle=orthogonalEdgeStyle;rounded=0;orthogonalLoop=1;jettySize=auto;html=1;entryX=0.5;entryY=0;entryDx=0;entryDy=0;" edge="1" parent="1" source="J5aSQKZKrRfzM4MedEiM-11" target="J5aSQKZKrRfzM4MedEiM-5">
          <mxGeometry relative="1" as="geometry" />
        </mxCell>
        <mxCell id="J5aSQKZKrRfzM4MedEiM-11" value="Server list" style="strokeWidth=2;html=1;shape=mxgraph.flowchart.display;whiteSpace=wrap;" vertex="1" parent="1">
          <mxGeometry x="80" y="260" width="100" height="60" as="geometry" />
        </mxCell>
        <mxCell id="J5aSQKZKrRfzM4MedEiM-12" style="edgeStyle=orthogonalEdgeStyle;rounded=0;orthogonalLoop=1;jettySize=auto;html=1;entryX=0.5;entryY=0;entryDx=0;entryDy=0;entryPerimeter=0;" edge="1" parent="1" source="J5aSQKZKrRfzM4MedEiM-1" target="J5aSQKZKrRfzM4MedEiM-11">
          <mxGeometry relative="1" as="geometry" />
        </mxCell>
        <mxCell id="J5aSQKZKrRfzM4MedEiM-13" value="Start" style="strokeWidth=2;html=1;shape=mxgraph.flowchart.start_2;whiteSpace=wrap;" vertex="1" parent="1">
          <mxGeometry x="80" y="40" width="100" height="100" as="geometry" />
        </mxCell>
        <mxCell id="J5aSQKZKrRfzM4MedEiM-49" style="edgeStyle=orthogonalEdgeStyle;rounded=0;orthogonalLoop=1;jettySize=auto;html=1;" edge="1" parent="1" source="J5aSQKZKrRfzM4MedEiM-15" target="J5aSQKZKrRfzM4MedEiM-17">
          <mxGeometry relative="1" as="geometry" />
        </mxCell>
        <mxCell id="J5aSQKZKrRfzM4MedEiM-15" value="Trains" style="strokeWidth=2;html=1;shape=mxgraph.flowchart.display;whiteSpace=wrap;" vertex="1" parent="1">
          <mxGeometry x="250" y="260" width="100" height="60" as="geometry" />
        </mxCell>
        <mxCell id="J5aSQKZKrRfzM4MedEiM-51" style="edgeStyle=orthogonalEdgeStyle;rounded=0;orthogonalLoop=1;jettySize=auto;html=1;entryX=0.5;entryY=1;entryDx=0;entryDy=0;" edge="1" parent="1" source="J5aSQKZKrRfzM4MedEiM-17" target="J5aSQKZKrRfzM4MedEiM-21">
          <mxGeometry relative="1" as="geometry" />
        </mxCell>
        <mxCell id="J5aSQKZKrRfzM4MedEiM-17" value="Choose Train" style="shape=parallelogram;perimeter=parallelogramPerimeter;whiteSpace=wrap;html=1;fixedSize=1;" vertex="1" parent="1">
          <mxGeometry x="240" y="350" width="120" height="60" as="geometry" />
        </mxCell>
        <mxCell id="J5aSQKZKrRfzM4MedEiM-52" style="edgeStyle=orthogonalEdgeStyle;rounded=0;orthogonalLoop=1;jettySize=auto;html=1;entryX=1;entryY=0.5;entryDx=0;entryDy=0;" edge="1" parent="1" source="J5aSQKZKrRfzM4MedEiM-21" target="J5aSQKZKrRfzM4MedEiM-4">
          <mxGeometry relative="1" as="geometry">
            <Array as="points">
              <mxPoint x="440" y="200" />
            </Array>
          </mxGeometry>
        </mxCell>
        <mxCell id="J5aSQKZKrRfzM4MedEiM-60" value="False" style="edgeLabel;html=1;align=center;verticalAlign=middle;resizable=0;points=[];" vertex="1" connectable="0" parent="J5aSQKZKrRfzM4MedEiM-52">
          <mxGeometry x="-0.6" y="-1" relative="1" as="geometry">
            <mxPoint as="offset" />
          </mxGeometry>
        </mxCell>
        <mxCell id="J5aSQKZKrRfzM4MedEiM-53" style="edgeStyle=orthogonalEdgeStyle;rounded=0;orthogonalLoop=1;jettySize=auto;html=1;entryX=0;entryY=0.5;entryDx=0;entryDy=0;" edge="1" parent="1" source="J5aSQKZKrRfzM4MedEiM-21" target="J5aSQKZKrRfzM4MedEiM-23">
          <mxGeometry relative="1" as="geometry" />
        </mxCell>
        <mxCell id="J5aSQKZKrRfzM4MedEiM-59" value="True" style="edgeLabel;html=1;align=center;verticalAlign=middle;resizable=0;points=[];" vertex="1" connectable="0" parent="J5aSQKZKrRfzM4MedEiM-53">
          <mxGeometry x="0.0143" y="-5" relative="1" as="geometry">
            <mxPoint x="-6" y="-1" as="offset" />
          </mxGeometry>
        </mxCell>
        <mxCell id="J5aSQKZKrRfzM4MedEiM-21" value="Is live train?" style="rhombus;whiteSpace=wrap;html=1;strokeWidth=1;" vertex="1" parent="1">
          <mxGeometry x="400" y="250" width="80" height="80" as="geometry" />
        </mxCell>
        <mxCell id="J5aSQKZKrRfzM4MedEiM-54" style="edgeStyle=orthogonalEdgeStyle;rounded=0;orthogonalLoop=1;jettySize=auto;html=1;entryX=0.5;entryY=0;entryDx=0;entryDy=0;" edge="1" parent="1" source="J5aSQKZKrRfzM4MedEiM-23" target="J5aSQKZKrRfzM4MedEiM-39">
          <mxGeometry relative="1" as="geometry" />
        </mxCell>
        <mxCell id="J5aSQKZKrRfzM4MedEiM-23" value="Fetch Next signal" style="rounded=0;whiteSpace=wrap;html=1;" vertex="1" parent="1">
          <mxGeometry x="530" y="170" width="120" height="60" as="geometry" />
        </mxCell>
        <mxCell id="J5aSQKZKrRfzM4MedEiM-39" value="Match signal value to picture" style="shape=process;whiteSpace=wrap;html=1;backgroundOutline=1;" vertex="1" parent="1">
          <mxGeometry x="530" y="260" width="120" height="60" as="geometry" />
        </mxCell>
        <mxCell id="J5aSQKZKrRfzM4MedEiM-48" style="edgeStyle=orthogonalEdgeStyle;rounded=0;orthogonalLoop=1;jettySize=auto;html=1;entryX=0.5;entryY=0;entryDx=0;entryDy=0;entryPerimeter=0;" edge="1" parent="1" source="J5aSQKZKrRfzM4MedEiM-4" target="J5aSQKZKrRfzM4MedEiM-15">
          <mxGeometry relative="1" as="geometry" />
        </mxCell>
        <mxCell id="J5aSQKZKrRfzM4MedEiM-57" style="edgeStyle=orthogonalEdgeStyle;rounded=0;orthogonalLoop=1;jettySize=auto;html=1;" edge="1" parent="1" source="J5aSQKZKrRfzM4MedEiM-55">
          <mxGeometry relative="1" as="geometry">
            <mxPoint x="440" y="380" as="targetPoint" />
          </mxGeometry>
        </mxCell>
        <mxCell id="J5aSQKZKrRfzM4MedEiM-55" value="Display Signal" style="strokeWidth=2;html=1;shape=mxgraph.flowchart.display;whiteSpace=wrap;" vertex="1" parent="1">
          <mxGeometry x="540" y="350" width="100" height="60" as="geometry" />
        </mxCell>
        <mxCell id="J5aSQKZKrRfzM4MedEiM-56" style="edgeStyle=orthogonalEdgeStyle;rounded=0;orthogonalLoop=1;jettySize=auto;html=1;entryX=0.5;entryY=0;entryDx=0;entryDy=0;entryPerimeter=0;" edge="1" parent="1" source="J5aSQKZKrRfzM4MedEiM-39" target="J5aSQKZKrRfzM4MedEiM-55">
          <mxGeometry relative="1" as="geometry" />
        </mxCell>
        <mxCell id="J5aSQKZKrRfzM4MedEiM-61" value="" style="swimlane;startSize=0;" vertex="1" parent="1">
          <mxGeometry x="80" y="460" width="400" height="200" as="geometry">
            <mxRectangle x="80" y="460" width="50" height="40" as="alternateBounds" />
          </mxGeometry>
        </mxCell>
        <mxCell id="J5aSQKZKrRfzM4MedEiM-63" value="EVM-120SE" style="text;html=1;align=left;verticalAlign=middle;whiteSpace=wrap;rounded=0;" vertex="1" parent="J5aSQKZKrRfzM4MedEiM-61">
          <mxGeometry x="30" y="10" width="90" height="30" as="geometry" />
        </mxCell>
        <mxCell id="J5aSQKZKrRfzM4MedEiM-64" value="Choose Server" style="text;html=1;align=left;verticalAlign=middle;whiteSpace=wrap;rounded=0;" vertex="1" parent="J5aSQKZKrRfzM4MedEiM-61">
          <mxGeometry x="30" y="40" width="90" height="30" as="geometry" />
        </mxCell>
        <mxCell id="J5aSQKZKrRfzM4MedEiM-65" value="Choose Train" style="text;html=1;align=left;verticalAlign=middle;whiteSpace=wrap;rounded=0;" vertex="1" parent="J5aSQKZKrRfzM4MedEiM-61">
          <mxGeometry x="30" y="86.5" width="90" height="30" as="geometry" />
        </mxCell>
        <mxCell id="J5aSQKZKrRfzM4MedEiM-66" value="Servers" style="rounded=1;fillColor=#F1F2F4;strokeColor=none;html=1;whiteSpace=wrap;fontColor=#596780;align=left;fontSize=12;spacingLeft=10;sketch=0;" vertex="1" parent="J5aSQKZKrRfzM4MedEiM-61">
          <mxGeometry x="120" y="40" width="140" height="33" as="geometry" />
        </mxCell>
        <mxCell id="J5aSQKZKrRfzM4MedEiM-67" value="" style="shape=triangle;direction=south;fillColor=#596780;strokeColor=none;html=1;sketch=0;" vertex="1" parent="J5aSQKZKrRfzM4MedEiM-66">
          <mxGeometry x="1" y="0.5" width="12" height="6" relative="1" as="geometry">
            <mxPoint x="-20" y="-3" as="offset" />
          </mxGeometry>
        </mxCell>
        <mxCell id="J5aSQKZKrRfzM4MedEiM-68" value="Trains" style="rounded=1;fillColor=#F1F2F4;strokeColor=none;html=1;whiteSpace=wrap;fontColor=#596780;align=left;fontSize=12;spacingLeft=10;sketch=0;" vertex="1" parent="J5aSQKZKrRfzM4MedEiM-61">
          <mxGeometry x="120" y="83.5" width="140" height="33" as="geometry" />
        </mxCell>
        <mxCell id="J5aSQKZKrRfzM4MedEiM-69" value="" style="shape=triangle;direction=south;fillColor=#596780;strokeColor=none;html=1;sketch=0;" vertex="1" parent="J5aSQKZKrRfzM4MedEiM-68">
          <mxGeometry x="1" y="0.5" width="12" height="6" relative="1" as="geometry">
            <mxPoint x="-20" y="-3" as="offset" />
          </mxGeometry>
        </mxCell>
        <mxCell id="J5aSQKZKrRfzM4MedEiM-72" value="Drive" style="rounded=1;html=1;shadow=0;dashed=0;whiteSpace=wrap;fontSize=10;fillColor=#E6E6E6;align=center;strokeColor=#E6E6E6;fontColor=#333333;" vertex="1" parent="J5aSQKZKrRfzM4MedEiM-61">
          <mxGeometry x="260" y="160" width="105.5" height="16.88" as="geometry" />
        </mxCell>
        <mxCell id="J5aSQKZKrRfzM4MedEiM-73" value="Display Signal Image from file" style="rounded=0;whiteSpace=wrap;html=1;" vertex="1" parent="1">
          <mxGeometry x="520" y="490" width="250" height="120" as="geometry" />
        </mxCell>
        <mxCell id="J5aSQKZKrRfzM4MedEiM-75" value="Terminate on `ESC`" style="ellipse;whiteSpace=wrap;html=1;" vertex="1" parent="1">
          <mxGeometry x="240" y="50" width="120" height="80" as="geometry" />
        </mxCell>
      </root>
    </mxGraphModel>
  </diagram>
</mxfile>
